<svg width="2800" height="800" xmlns="http://www.w3.org/2000/svg" xmlns:xlink="http://www.w3.org/1999/xlink" version="1.1" baseProfile="full" viewBox="0 0 2800 800">
<rect width="2800" height="800" x="0" y="0" id="0" fill="none"></rect>
<path d="M280 730.5L2520 730.5" fill="none" stroke="#E0E6F1"></path>
<path d="M280 562.5L2520 562.5" fill="none" stroke="#E0E6F1"></path>
<path d="M280 395.5L2520 395.5" fill="none" stroke="#E0E6F1"></path>
<path d="M280 227.5L2520 227.5" fill="none" stroke="#E0E6F1"></path>
<path d="M280 60.5L2520 60.5" fill="none" stroke="#E0E6F1"></path>
<path d="M280 730.5L2520 730.5" fill="none" stroke="#6E7079" stroke-linecap="round"></path>
<path d="M280.5 730L280.5 735" fill="none" stroke="#6E7079"></path>
<path d="M337.5 730L337.5 735" fill="none" stroke="#6E7079"></path>
<path d="M394.5 730L394.5 735" fill="none" stroke="#6E7079"></path>
<path d="M450.5 730L450.5 735" fill="none" stroke="#6E7079"></path>
<path d="M507.5 730L507.5 735" fill="none" stroke="#6E7079"></path>
<path d="M564.5 730L564.5 735" fill="none" stroke="#6E7079"></path>
<path d="M621.5 730L621.5 735" fill="none" stroke="#6E7079"></path>
<path d="M678.5 730L678.5 735" fill="none" stroke="#6E7079"></path>
<path d="M735.5 730L735.5 735" fill="none" stroke="#6E7079"></path>
<path d="M792.5 730L792.5 735" fill="none" stroke="#6E7079"></path>
<path d="M849.5 730L849.5 735" fill="none" stroke="#6E7079"></path>
<path d="M906.5 730L906.5 735" fill="none" stroke="#6E7079"></path>
<path d="M963.5 730L963.5 735" fill="none" stroke="#6E7079"></path>
<path d="M1019.5 730L1019.5 735" fill="none" stroke="#6E7079"></path>
<path d="M1076.5 730L1076.5 735" fill="none" stroke="#6E7079"></path>
<path d="M1133.5 730L1133.5 735" fill="none" stroke="#6E7079"></path>
<path d="M1190.5 730L1190.5 735" fill="none" stroke="#6E7079"></path>
<path d="M1247.5 730L1247.5 735" fill="none" stroke="#6E7079"></path>
<path d="M1304.5 730L1304.5 735" fill="none" stroke="#6E7079"></path>
<path d="M1361.5 730L1361.5 735" fill="none" stroke="#6E7079"></path>
<path d="M1418.5 730L1418.5 735" fill="none" stroke="#6E7079"></path>
<path d="M1475.5 730L1475.5 735" fill="none" stroke="#6E7079"></path>
<path d="M1531.5 730L1531.5 735" fill="none" stroke="#6E7079"></path>
<path d="M1588.5 730L1588.5 735" fill="none" stroke="#6E7079"></path>
<path d="M1645.5 730L1645.5 735" fill="none" stroke="#6E7079"></path>
<path d="M1702.5 730L1702.5 735" fill="none" stroke="#6E7079"></path>
<path d="M1759.5 730L1759.5 735" fill="none" stroke="#6E7079"></path>
<path d="M1816.5 730L1816.5 735" fill="none" stroke="#6E7079"></path>
<path d="M1873.5 730L1873.5 735" fill="none" stroke="#6E7079"></path>
<path d="M1930.5 730L1930.5 735" fill="none" stroke="#6E7079"></path>
<path d="M1987.5 730L1987.5 735" fill="none" stroke="#6E7079"></path>
<path d="M2044.5 730L2044.5 735" fill="none" stroke="#6E7079"></path>
<path d="M2100.5 730L2100.5 735" fill="none" stroke="#6E7079"></path>
<path d="M2157.5 730L2157.5 735" fill="none" stroke="#6E7079"></path>
<path d="M2214.5 730L2214.5 735" fill="none" stroke="#6E7079"></path>
<path d="M2271.5 730L2271.5 735" fill="none" stroke="#6E7079"></path>
<path d="M2328.5 730L2328.5 735" fill="none" stroke="#6E7079"></path>
<path d="M2385.5 730L2385.5 735" fill="none" stroke="#6E7079"></path>
<path d="M2442.5 730L2442.5 735" fill="none" stroke="#6E7079"></path>
<path d="M2499.5 730L2499.5 735" fill="none" stroke="#6E7079"></path>
<path d="M2520.5 730L2520.5 735" fill="none" stroke="#6E7079"></path>
<text dominant-baseline="central" text-anchor="end" style="font-size:12px;font-family:sans-serif;" transform="translate(272 730)" fill="#6E7079">0</text>
<text dominant-baseline="central" text-anchor="end" style="font-size:12px;font-family:sans-serif;" transform="translate(272 562.5)" fill="#6E7079">50</text>
<text dominant-baseline="central" text-anchor="end" style="font-size:12px;font-family:sans-serif;" transform="translate(272 395)" fill="#6E7079">100</text>
<text dominant-baseline="central" text-anchor="end" style="font-size:12px;font-family:sans-serif;" transform="translate(272 227.5)" fill="#6E7079">150</text>
<text dominant-baseline="central" text-anchor="end" style="font-size:12px;font-family:sans-serif;" transform="translate(272 60)" fill="#6E7079">200</text>
<text dominant-baseline="central" text-anchor="middle" style="font-size:12px;font-family:sans-serif;" y="6" transform="translate(280.0747 738)" fill="#6E7079">0.0</text>
<text dominant-baseline="central" text-anchor="middle" style="font-size:12px;font-family:sans-serif;" y="6" transform="translate(336.9707 738)" fill="#6E7079">381.0</text>
<text dominant-baseline="central" text-anchor="middle" style="font-size:12px;font-family:sans-serif;" y="6" transform="translate(393.8667 738)" fill="#6E7079">762.0</text>
<text dominant-baseline="central" text-anchor="middle" style="font-size:12px;font-family:sans-serif;" y="6" transform="translate(450.7627 738)" fill="#6E7079">1143.0</text>
<text dominant-baseline="central" text-anchor="middle" style="font-size:12px;font-family:sans-serif;" y="6" transform="translate(507.6587 738)" fill="#6E7079">1524.0</text>
<text dominant-baseline="central" text-anchor="middle" style="font-size:12px;font-family:sans-serif;" y="6" transform="translate(564.5547 738)" fill="#6E7079">1905.0</text>
<text dominant-baseline="central" text-anchor="middle" style="font-size:12px;font-family:sans-serif;" y="6" transform="translate(621.4507 738)" fill="#6E7079">2286.0</text>
<text dominant-baseline="central" text-anchor="middle" style="font-size:12px;font-family:sans-serif;" y="6" transform="translate(678.3467 738)" fill="#6E7079">2667.0</text>
<text dominant-baseline="central" text-anchor="middle" style="font-size:12px;font-family:sans-serif;" y="6" transform="translate(735.2427 738)" fill="#6E7079">3048.0</text>
<text dominant-baseline="central" text-anchor="middle" style="font-size:12px;font-family:sans-serif;" y="6" transform="translate(792.1387 738)" fill="#6E7079">3429.0</text>
<text dominant-baseline="central" text-anchor="middle" style="font-size:12px;font-family:sans-serif;" y="6" transform="translate(849.0347 738)" fill="#6E7079">3810.0</text>
<text dominant-baseline="central" text-anchor="middle" style="font-size:12px;font-family:sans-serif;" y="6" transform="translate(905.9307 738)" fill="#6E7079">4191.0</text>
<text dominant-baseline="central" text-anchor="middle" style="font-size:12px;font-family:sans-serif;" y="6" transform="translate(962.8267 738)" fill="#6E7079">4572.0</text>
<text dominant-baseline="central" text-anchor="middle" style="font-size:12px;font-family:sans-serif;" y="6" transform="translate(1019.7227 738)" fill="#6E7079">4953.0</text>
<text dominant-baseline="central" text-anchor="middle" style="font-size:12px;font-family:sans-serif;" y="6" transform="translate(1076.6187 738)" fill="#6E7079">5334.0</text>
<text dominant-baseline="central" text-anchor="middle" style="font-size:12px;font-family:sans-serif;" y="6" transform="translate(1133.5147 738)" fill="#6E7079">5715.0</text>
<text dominant-baseline="central" text-anchor="middle" style="font-size:12px;font-family:sans-serif;" y="6" transform="translate(1190.4107 738)" fill="#6E7079">6096.0</text>
<text dominant-baseline="central" text-anchor="middle" style="font-size:12px;font-family:sans-serif;" y="6" transform="translate(1247.3067 738)" fill="#6E7079">6477.0</text>
<text dominant-baseline="central" text-anchor="middle" style="font-size:12px;font-family:sans-serif;" y="6" transform="translate(1304.2027 738)" fill="#6E7079">6858.0</text>
<text dominant-baseline="central" text-anchor="middle" style="font-size:12px;font-family:sans-serif;" y="6" transform="translate(1361.0987 738)" fill="#6E7079">7239.0</text>
<text dominant-baseline="central" text-anchor="middle" style="font-size:12px;font-family:sans-serif;" y="6" transform="translate(1417.9947 738)" fill="#6E7079">7620.0</text>
<text dominant-baseline="central" text-anchor="middle" style="font-size:12px;font-family:sans-serif;" y="6" transform="translate(1474.8907 738)" fill="#6E7079">8001.0</text>
<text dominant-baseline="central" text-anchor="middle" style="font-size:12px;font-family:sans-serif;" y="6" transform="translate(1531.7867 738)" fill="#6E7079">8382.0</text>
<text dominant-baseline="central" text-anchor="middle" style="font-size:12px;font-family:sans-serif;" y="6" transform="translate(1588.6827 738)" fill="#6E7079">8763.0</text>
<text dominant-baseline="central" text-anchor="middle" style="font-size:12px;font-family:sans-serif;" y="6" transform="translate(1645.5787 738)" fill="#6E7079">9144.0</text>
<text dominant-baseline="central" text-anchor="middle" style="font-size:12px;font-family:sans-serif;" y="6" transform="translate(1702.4747 738)" fill="#6E7079">9525.0</text>
<text dominant-baseline="central" text-anchor="middle" style="font-size:12px;font-family:sans-serif;" y="6" transform="translate(1759.3707 738)" fill="#6E7079">9906.0</text>
<text dominant-baseline="central" text-anchor="middle" style="font-size:12px;font-family:sans-serif;" y="6" transform="translate(1816.2667 738)" fill="#6E7079">10287.0</text>
<text dominant-baseline="central" text-anchor="middle" style="font-size:12px;font-family:sans-serif;" y="6" transform="translate(1873.1627 738)" fill="#6E7079">10668.0</text>
<text dominant-baseline="central" text-anchor="middle" style="font-size:12px;font-family:sans-serif;" y="6" transform="translate(1930.0587 738)" fill="#6E7079">11049.0</text>
<text dominant-baseline="central" text-anchor="middle" style="font-size:12px;font-family:sans-serif;" y="6" transform="translate(1986.9547 738)" fill="#6E7079">11430.0</text>
<text dominant-baseline="central" text-anchor="middle" style="font-size:12px;font-family:sans-serif;" y="6" transform="translate(2043.8507 738)" fill="#6E7079">11811.0</text>
<text dominant-baseline="central" text-anchor="middle" style="font-size:12px;font-family:sans-serif;" y="6" transform="translate(2100.7467 738)" fill="#6E7079">12192.0</text>
<text dominant-baseline="central" text-anchor="middle" style="font-size:12px;font-family:sans-serif;" y="6" transform="translate(2157.6427 738)" fill="#6E7079">12573.0</text>
<text dominant-baseline="central" text-anchor="middle" style="font-size:12px;font-family:sans-serif;" y="6" transform="translate(2214.5387 738)" fill="#6E7079">12954.0</text>
<text dominant-baseline="central" text-anchor="middle" style="font-size:12px;font-family:sans-serif;" y="6" transform="translate(2271.4347 738)" fill="#6E7079">13335.0</text>
<text dominant-baseline="central" text-anchor="middle" style="font-size:12px;font-family:sans-serif;" y="6" transform="translate(2328.3307 738)" fill="#6E7079">13716.0</text>
<text dominant-baseline="central" text-anchor="middle" style="font-size:12px;font-family:sans-serif;" y="6" transform="translate(2385.2267 738)" fill="#6E7079">14097.0</text>
<text dominant-baseline="central" text-anchor="middle" style="font-size:12px;font-family:sans-serif;" y="6" transform="translate(2442.1227 738)" fill="#6E7079">14478.0</text>
<text dominant-baseline="central" text-anchor="middle" style="font-size:12px;font-family:sans-serif;" y="6" transform="translate(2499.0187 738)" fill="#6E7079">14859.0</text>
<g clip-path="url(#zr0-c0)">
<path d="M280.1 730L280.8 730L281.6 730L282.3 730L283.1 730L283.8 730L284.6 730L285.3 730L286 730L286.8 730L287.5 730L288.3 730L289 730L289.8 730L290.5 730L291.3 730L292 730L292.8 730L293.5 730L294.3 730L295 730L295.2 562.5L295.3 730L296.1 730L296.8 730L297.5 730L298.3 730L299 730L299.8 730L300.5 730L301.3 730L302 730L302.8 730L303.5 730L304.3 730L305 730L305.8 730L306.5 730L307.3 730L308 730L308.7 730L309.5 730L310.2 730L311 730L311.7 730L312.5 730L313.2 730L314 730L314.7 730L315.5 730L316.2 730L317 730L317.7 730L318.5 730L319.2 730L319.9 730L320.7 730L321.4 730L322.2 730L322.9 730L323.7 730L324.4 730L325.2 730L325.9 730L326.7 730L327.4 730L328.2 730L328.9 730L329.7 730L330.4 730L331.1 730L331.9 730L332.6 730L333.4 730L334.1 730L334.9 730L335.6 730L336.4 730L337.1 730L337.9 730L338.6 730L339.4 730L340 227.5L340.1 730L340.9 730L341.6 730L342.3 730L343.1 730L343.8 730L344.6 730L345.3 730L346.1 730L346.8 730L347.6 730L348.3 730L349.1 730L349.8 730L350.6 730L351.3 730L352.1 730L352.8 730L353.5 730L354.3 730L355 730L355.8 730L356.5 730L357.3 730L358 730L358.8 730L359.5 730L360.3 730L361 730L361.8 730L362.5 730L363.3 730L364 730L364.7 730L365.5 730L366.2 730L367 730L367.7 730L368.5 730L369.2 730L370 730L370.7 730L371.5 730L372.2 730L373 730L373.7 730L374.5 730L375.2 730L375.9 730L376.7 730L377.4 730L378.2 730L378.9 730L379.7 730L380.4 730L381.2 730L381.9 730L382.7 730L383.4 730L384.2 730L384.9 730L385.7 730L386.4 730L387.1 730L387.9 730L388.6 730L389.4 730L390.1 730L390.9 730L391.6 730L392.4 730L393.1 730L393.9 730L394.6 730L395.4 730L396.1 730L396.9 730L397.6 730L398.3 730L399.1 730L399.8 730L400.6 730L401.3 730L402.1 730L402.8 730L403.6 730L404.3 730L405.1 730L405.8 730L406.6 730L407.3 730L408.1 730L408.8 730L409.5 730L410.3 730L411 730L411.8 730L412.5 730L413.3 730L414 730L414.8 730L415.5 730L416.3 730L417 730L417.8 730L418.5 730L419.3 730L420 730L420.7 730L421.5 730L422.2 730L423 730L423.7 730L424.5 730L425.2 730L426 730L426.7 730L427.5 730L428.2 730L429 730L429.7 730L430.5 730L431.2 730L431.9 730L432.7 730L433.4 730L434.2 730L434.9 730L435.7 730L436.4 730L437.2 730L437.9 730L438.7 730L439.4 730L440.2 730L440.9 730L441.7 730L442.4 730L443.1 730L443.9 730L444.6 730L445.4 730L446.1 730L446.9 730L447.6 730L448.4 730L449.1 730L449.9 730L450.6 730L451.4 730L452.1 730L452.9 730L453.6 730L454.3 730L455.1 730L455.8 730L456.6 730L457.3 730L458.1 730L458.8 730L459.6 730L460.3 730L461.1 730L461.8 730L462.6 730L463.3 730L464.1 730L464.8 730L465.5 730L466.3 730L467 730L467.8 730L468.5 730L469.3 730L470 730L470.8 730L471.5 730L472.3 730L473 730L473.8 730L474.5 730L475.3 730L476 730L476.7 730L477.5 730L478.2 730L479 730L479.7 730L480.5 730L481.2 730L482 730L482.7 730L483.5 730L484.2 730L485 730L485.7 730L486.5 730L487.2 730L487.9 730L488.7 730L489.4 730L490.2 730L490.9 730L491.7 730L492.4 730L493.2 730L493.9 730L494.7 730L495.4 730L496.2 730L496.9 730L497.7 730L498.4 730L499.1 730L499.9 730L500.6 730L501.4 730L502.1 730L502.9 730L503.6 730L504.4 730L505.1 730L505.9 730L506.6 730L507.4 730L508.1 730L508.9 730L509.6 730L510.3 730L511.1 730L511.8 730L512.6 730L513.3 730L514.1 730L514.8 730L515.6 730L516.3 730L517.1 730L517.8 730L518.6 730L519.3 730L520.1 730L520.8 730L521.5 730L522.3 730L523 730L523.8 730L524.5 730L525.3 730L526 730L526.8 730L527.5 730L528.3 730L529 730L529.8 730L530.5 730L531.3 730L532 730L532.7 730L533.5 730L534.2 730L535 730L535.7 730L536.5 730L537.2 730L538 730L538.7 730L539.5 730L540.2 730L541 730L541.7 730L542.5 730L543.2 730L543.9 730L544.7 730L545.4 730L546.2 730L546.9 730L547.7 730L548.4 730L549.2 730L549.9 730L550.7 730L551.4 730L552.2 730L552.9 730L553.7 730L554.4 730L555.1 730L555.9 730L556.6 730L557.4 730L558.1 730L558.9 730L559.6 730L560.4 730L561.1 730L561.9 730L562.6 730L563.4 730L564.1 730L564.9 730L565.6 730L566.3 730L567.1 730L567.8 730L568.6 730L569.3 730L570.1 730L570.8 730L571.6 730L572.3 730L573.1 730L573.8 730L574.6 730L575.3 730L576.1 730L576.8 730L577.5 730L578.3 730L579 730L579.8 730L580.5 730L581.3 730L582 730L582.8 730L583.5 730L584.3 730L585 730L585.8 730L586.5 730L587.3 730L588 730L588.7 730L589.5 730L590.2 730L591 730L591.7 730L592.5 730L593.2 730L594 730L594.7 730L595.5 730L596.2 730L597 730L597.7 730L598.5 730L599.2 730L599.9 730L600.7 730L601.4 730L602.2 730L602.9 730L603.7 730L604.4 730L605.2 730L605.9 730L606.7 730L607.4 730L608.2 730L608.9 730L609.7 730L610.4 730L611.1 730L611.9 730L612.6 730L613.4 730L614.1 730L614.9 730L615.6 730L616.4 730L617.1 730L617.9 730L618.6 730L619.4 730L620.1 730L620.9 730L621.6 730L622.3 730L623.1 730L623.8 730L624.6 730L625.3 730L626.1 730L626.8 730L627.6 730L628.3 730L629.1 730L629.8 730L630.6 730L631.3 730L632.1 730L632.8 730L633.5 730L634.3 730L635 730L635.8 730L636.5 730L637.3 730L638 730L638.8 730L639.5 730L640.3 730L641 730L641.8 730L642.5 730L643.3 730L644 730L644.7 730L645.5 730L646.2 730L647 730L647.7 730L648.5 730L649.2 730L650 730L650.7 730L651.5 730L652.2 730L653 730L653.7 730L654.5 730L655.2 730L655.9 730L656.7 730L657.4 730L658.2 730L658.9 730L659.7 730L660.4 730L661.2 730L661.9 730L662.7 730L663.4 730L664.2 730L664.9 730L665.7 730L666.4 730L667.1 730L667.9 730L668.6 730L669.4 730L670.1 730L670.9 730L671.6 730L672.4 730L673.1 730L673.9 730L674.6 730L675.4 730L676.1 730L676.9 730L677.6 730L678.3 730L679.1 730L679.8 730L680.6 730L681.3 730L682.1 730L682.8 730L683.6 730L684.3 730L685.1 730L685.8 730L686.6 730L687.3 730L688.1 730L688.8 730L689.5 730L690.3 730L691 730L691.8 730L692.5 730L693.3 730L694 730L694.8 730L695.5 730L696.3 730L697 730L697.8 730L698.5 730L699.3 730L700 730L700.7 730L701.5 730L702.2 730L703 730L703.7 730L704.5 730L705.2 730L706 730L706.7 730L707.5 730L708.2 730L709 730L709.7 730L710.5 730L711.2 730L711.9 730L712.7 730L713.4 730L714.2 730L714.9 730L715.7 730L716.4 730L717.2 730L717.9 730L718.7 730L719.4 730L720.2 730L720.9 730L721.7 730L722.4 730L723.1 730L723.9 730L724.6 730L725.4 730L726.1 730L726.9 730L727.6 730L728.4 730L729.1 730L729.9 730L730.6 730L731.4 730L732.1 730L732.9 730L733.6 730L734.3 730L735.1 730L735.8 730L736.6 730L737.3 730L738.1 730L738.8 730L739.6 730L740.3 730L741.1 730L741.8 730L742.6 730L743.3 730L744.1 730L744.8 730L745.5 730L746.3 730L747 730L747.8 730L748.5 730L749.3 730L750 730L750.8 730L751.5 730L752.3 730L753 730L753.8 730L754.5 730L755.3 730L756 730L756.7 730L757.5 730L758.2 730L759 730L759.7 730L760.5 730L761.2 730L762 730L762.7 730L763.5 730L764.2 730L765 730L765.7 730L766.5 730L767.2 730L767.9 730L768.7 730L769.4 730L770.2 730L770.9 730L771.7 730L772.4 730L773.2 730L773.9 730L774.7 730L775.4 730L776.2 730L776.9 730L777.7 730L778.4 730L779.1 730L779.9 730L780.6 730L781.4 730L782.1 730L782.9 730L783.6 730L784.4 730L785.1 730L785.9 730L786.6 730L787.4 730L788.1 730L788.9 730L789.6 730L790.3 730L791.1 730L791.8 730L792.6 730L793.3 730L794.1 730L794.8 730L795.6 730L796.3 730L797.1 730L797.8 730L798.6 730L799.3 730L800.1 730L800.8 730L801.5 730L802.3 730L803 730L803.8 730L804.5 730L805.3 730L806 730L806.8 730L807.5 730L808.3 730L809 730L809.8 730L810.5 730L811.3 730L812 730L812.7 730L813.5 730L814.2 730L815 730L815.7 730L816.5 730L817.2 730L818 730L818.7 730L819.5 730L820.2 730L821 730L821.7 730L822.5 730L823.2 730L823.9 730L824.7 730L825.4 730L826.2 730L826.9 730L827.7 730L828.4 730L829.2 730L829.9 730L830.7 730L831.4 730L832.2 730L832.9 730L833.7 730L834.4 730L835.1 730L835.9 730L836.6 730L837.4 730L838.1 730L838.9 730L839.6 730L840.4 730L841.1 730L841.9 730L842.6 730L843.4 730L844.1 730L844.9 730L845.6 730L846.3 730L847.1 730L847.8 730L848.6 730L849.3 730L850.1 730L850.8 730L851.6 730L852.3 730L853.1 730L853.8 730L854.6 730L855.3 730L856.1 730L856.8 730L857.5 730L858.3 730L859 730L859.8 730L860.5 730L861.3 730L862 730L862.8 730L863.5 730L864.3 730L865 730L865.8 730L866.5 730L867.3 730L868 730L868.7 730L869.5 730L870.2 730L871 730L871.7 730L872.5 730L873.2 730L874 730L874.7 730L875.5 730L876.2 730L877 730L877.6 60L877.7 730L878.5 730L879.2 730L879.9 730L880.7 730L881.4 730L882.2 730L882.9 730L883.7 730L884.4 730L885.2 730L885.9 730L886.7 730L887.4 730L888.2 730L888.9 730L889.7 730L890.4 730L891.1 730L891.9 730L892.6 730L893.4 730L894.1 730L894.9 730L895.6 730L896.4 730L897.1 730L897.9 730L898.6 730L899.4 730L900.1 730L900.9 730L901.6 730L902.3 730L903.1 730L903.8 730L904.6 730L905.3 730L906.1 730L906.8 730L907.6 730L908.3 730L909.1 730L909.8 730L910.6 730L911.3 730L912.1 730L912.8 730L913.5 730L914.3 730L915 730L915.8 730L916.5 730L917.3 730L918 730L918.8 730L919.5 730L920.3 730L921 730L921.8 730L922.5 730L923.3 730L924 730L924.7 730L925.5 730L926.2 730L927 730L927.7 730L928.5 730L929.2 730L930 730L930.7 730L931.5 730L932.2 730L933 730L933.7 730L934.5 730L935.2 730L935.9 730L936.7 730L937.4 730L938.2 730L938.9 730L939.7 730L940.4 730L941.2 730L941.9 730L942.7 730L943.4 730L944.2 730L944.9 730L945.7 730L946.4 730L947.1 730L947.9 730L948.6 730L949.4 730L950.1 730L950.9 730L951.6 730L952.4 730L953.1 730L953.9 730L954.6 730L955.4 730L956.1 730L956.9 730L957.6 730L958.3 730L959.1 730L959.8 730L960.6 730L961.3 730L962.1 730L962.8 730L963.6 730L964.3 730L965.1 730L965.8 730L966.6 730L967.3 730L968.1 730L968.8 730L969.5 730L970.3 730L971 730L971.8 730L972.5 730L973.3 730L974 730L974.8 730L975.5 730L976.3 730L977 730L977.8 730L978.5 730L979.3 730L980 730L980.7 730L981.5 730L982.2 730L983 730L983.7 730L984.5 730L985.2 730L986 730L986.7 730L987.5 730L988.2 730L989 730L989.7 730L990.5 730L991.2 730L991.9 730L992.7 730L993.4 730L994.2 730L994.9 730L995.7 730L996.4 730L997.2 730L997.9 730L998.7 730L999.4 730L1000.2 730L1000.9 730L1001.7 730L1002.4 730L1003.1 730L1003.9 730L1004.6 730L1005.4 730L1006.1 730L1006.9 730L1007.6 730L1008.4 730L1009.1 730L1009.9 730L1010.6 730L1011.4 730L1012.1 730L1012.9 730L1013.6 730L1014.3 730L1015.1 730L1015.8 730L1016.6 730L1017.3 730L1018.1 730L1018.8 730L1019.6 730L1020.3 730L1021.1 730L1021.8 730L1022.6 730L1023.3 730L1024.1 730L1024.8 730L1025.5 730L1026.3 730L1027 730L1027.8 730L1028.5 730L1029.3 730L1030 730L1030.8 730L1031.5 730L1032.3 730L1033 730L1033.8 730L1034.5 730L1035.3 730L1036 730L1036.7 730L1037.5 730L1038.2 730L1039 730L1039.7 730L1040.5 730L1041.2 730L1042 730L1042.7 730L1043.5 730L1044.2 730L1045 730L1045.7 730L1046.5 730L1047.2 730L1047.9 730L1048.7 730L1049.4 730L1050.2 730L1050.9 730L1051.7 730L1052.4 730L1053.2 730L1053.9 730L1054.7 730L1055.4 730L1056.2 730L1056.9 730L1057.7 730L1058.4 730L1059.1 730L1059.9 730L1060.6 730L1061.4 730L1062.1 730L1062.9 730L1063.6 730L1064.4 730L1065.1 730L1065.9 730L1066.6 730L1067.4 730L1068.1 730L1068.9 730L1069.6 730L1070.3 730L1071.1 730L1071.8 730L1072.6 730L1073.3 730L1074.1 730L1074.8 730L1075.6 730L1076.3 730L1077.1 730L1077.8 730L1078.6 730L1079.3 730L1080.1 730L1080.8 730L1081.5 730L1082.3 730L1083 730L1083.8 730L1084.5 730L1085.3 730L1086 730L1086.8 730L1087.5 730L1088.3 730L1089 730L1089.8 730L1090.5 730L1091.3 730L1092 730L1092.7 730L1093.5 730L1094.2 730L1095 730L1095.7 730L1096.5 730L1097.2 730L1098 730L1098.7 730L1099.5 730L1100.2 730L1101 730L1101.7 730L1102.5 730L1103.2 730L1103.9 730L1104.7 730L1105.4 730L1106.2 730L1106.9 730L1107.7 730L1108.4 730L1109.2 730L1109.9 730L1110.7 730L1111.4 730L1112.2 730L1112.9 730L1113.7 730L1114.4 730L1115.1 730L1115.9 730L1116.6 730L1117.4 730L1118.1 730L1118.9 730L1119.6 730L1120.4 730L1121.1 730L1121.9 730L1122.6 730L1123.4 730L1124.1 730L1124.9 730L1125.6 730L1126.3 730L1127.1 730L1127.8 730L1128.6 730L1129.3 730L1130.1 730L1130.8 730L1131.6 730L1132.3 730L1133.1 730L1133.8 730L1134.6 730L1135.3 730L1136.1 730L1136.8 730L1137.5 730L1138.3 730L1139 730L1139.8 730L1140.5 730L1141.3 730L1142 730L1142.8 730L1143.5 730L1144.3 730L1145 730L1145.8 730L1146.5 730L1147.3 730L1148 730L1148.7 730L1149.5 730L1150.2 730L1151 730L1151.7 730L1152.5 730L1153.2 730L1154 730L1154.7 730L1155.5 730L1156.2 730L1157 730L1157.7 730L1158.5 730L1159.2 730L1159.9 730L1160.7 730L1161.4 730L1162.2 730L1162.9 730L1163.7 730L1164.4 730L1165.2 730L1165.9 730L1166.7 730L1167.4 730L1168.2 730L1168.9 730L1169.7 730L1170.4 730L1171.1 730L1171.9 730L1172.6 730L1173.4 730L1174.1 730L1174.9 730L1175.6 730L1176.4 730L1177.1 730L1177.9 730L1178.6 730L1179.4 730L1180.1 730L1180.9 730L1181.6 730L1182.3 730L1183.1 730L1183.8 730L1184.6 730L1185.3 730L1186.1 730L1186.8 730L1187.6 730L1188.3 730L1189.1 730L1189.8 730L1190.6 730L1191.3 730L1192.1 730L1192.8 730L1193.5 730L1194.3 730L1195 730L1195.8 730L1196.5 730L1197.3 730L1198 730L1198.8 730L1199.5 730L1200.3 730L1201 730L1201.8 730L1202.5 730L1203.3 730L1204 730L1204.7 730L1205.5 730L1206.2 730L1207 730L1207.7 730L1208.5 730L1209.2 730L1210 730L1210.7 730L1211.5 730L1212.2 730L1213 730L1213.7 730L1214.5 730L1215.2 730L1215.9 730L1216.7 730L1217.4 730L1218.2 730L1218.9 730L1219.7 730L1220.4 730L1221.2 730L1221.9 730L1222.7 730L1223.4 730L1224.2 730L1224.9 730L1225.7 730L1226.4 730L1227.1 730L1227.9 730L1228.6 730L1229.4 730L1230.1 730L1230.9 730L1231.6 730L1232.4 730L1233.1 730L1233.9 730L1234.6 730L1235.4 730L1236.1 730L1236.9 730L1237.6 730L1238.3 730L1239.1 730L1239.8 730L1240.6 730L1241.3 730L1242.1 730L1242.8 730L1243.6 730L1244.3 730L1245.1 730L1245.8 730L1246.6 730L1247.3 730L1248.1 730L1248.8 730L1249.5 730L1250.3 730L1251 730L1251.8 730L1252.5 730L1253.3 730L1254 730L1254.8 730L1255.5 730L1256.3 730L1257 730L1257.8 730L1258.5 730L1259.3 730L1260 730L1260.7 730L1261.5 730L1262.2 730L1263 730L1263.7 730L1264.5 730L1265.2 730L1266 730L1266.7 730L1267.5 730L1268.2 730L1269 730L1269.7 730L1270.5 730L1271.2 730L1271.9 730L1272.7 730L1273.4 730L1274.2 730L1274.9 730L1275.7 730L1276.4 730L1277.2 730L1277.9 730L1278.7 730L1279.4 730L1280.2 730L1280.9 730L1281.7 730L1282.4 730L1283.1 730L1283.9 730L1284.6 730L1285.4 730L1286.1 730L1286.9 730L1287.6 730L1288.4 730L1289.1 730L1289.9 730L1290.6 730L1291.4 730L1292.1 730L1292.9 730L1293.6 730L1294.3 730L1295.1 730L1295.8 730L1296.6 730L1297.3 730L1298.1 730L1298.8 730L1299.6 730L1300.3 730L1301.1 730L1301.8 730L1302.6 730L1303.3 730L1304.1 730L1304.8 730L1305.5 730L1306.3 730L1307 730L1307.8 730L1308.5 730L1309.3 730L1310 730L1310.8 730L1311.5 730L1312.3 730L1313 730L1313.8 730L1314.5 730L1315.3 730L1316 730L1316.7 730L1317.5 730L1318.2 730L1319 730L1319.7 730L1320.5 730L1321.2 730L1322 730L1322.7 730L1323.5 730L1324.2 730L1325 730L1325.7 730L1326.5 730L1327.2 730L1327.9 730L1328.7 730L1329.4 730L1330.2 730L1330.9 730L1331.7 730L1332.4 730L1333.2 730L1333.9 730L1334.7 730L1335.4 730L1336.2 730L1336.9 730L1337.7 730L1338.4 730L1339.1 730L1339.9 730L1340.6 730L1341.4 730L1342.1 730L1342.9 730L1343.6 730L1344.4 730L1345.1 730L1345.9 730L1346.6 730L1347.4 730L1348.1 730L1348.9 730L1349.6 730L1350.3 730L1351.1 730L1351.8 730L1352.6 730L1353.3 730L1354.1 730L1354.8 730L1355.6 730L1356.3 730L1357.1 730L1357.8 730L1358.6 730L1359.3 730L1360.1 730L1360.8 730L1361.5 730L1362.3 730L1363 730L1363.8 730L1364.5 730L1365.3 730L1366 730L1366.8 730L1367.5 730L1368.3 730L1369 730L1369.8 730L1370.5 730L1371.3 730L1372 730L1372.7 730L1373.5 730L1374.2 730L1375 730L1375.7 730L1376.5 730L1377.2 730L1378 730L1378.7 730L1379.5 730L1380.2 730L1381 730L1381.7 730L1382.5 730L1383.2 730L1383.9 730L1384.7 730L1385.4 730L1386.2 730L1386.9 730L1387.7 730L1388.4 730L1389.2 730L1389.9 730L1390.7 730L1391.4 730L1392.2 730L1392.9 730L1393.7 730L1394.4 730L1395.1 730L1395.9 730L1396.6 730L1397.4 730L1398.1 730L1398.9 730L1399.6 730L1400.4 730L1401.1 730L1401.9 730L1402.6 730L1403.4 730L1404.1 730L1404.9 730L1405.6 730L1406.3 730L1407.1 730L1407.8 730L1408.6 730L1409.3 730L1410.1 730L1410.8 730L1411.6 730L1412.3 730L1413.1 730L1413.8 730L1414.6 730L1415.3 730L1416.1 730L1416.8 730L1417.5 730L1418.3 730L1419 730L1419.8 730L1420.5 730L1421.3 730L1422 730L1422.8 730L1423.5 730L1424.3 730L1425 730L1425.8 730L1426.5 730L1427.3 730L1428 730L1428.7 730L1429.5 730L1430.2 730L1431 730L1431.7 730L1432.5 730L1433.2 730L1434 730L1434.7 730L1435.5 730L1436.2 730L1437 730L1437.7 730L1438.5 730L1439.2 730L1439.9 730L1440.7 730L1441.4 730L1442.2 730L1442.9 730L1443.7 730L1444.4 730L1445.2 730L1445.9 730L1446.7 730L1447.4 730L1448.2 730L1448.9 730L1449.7 730L1450.4 730L1451.1 730L1451.9 730L1452.6 730L1453.4 730L1454.1 730L1454.9 730L1455.6 730L1456.4 730L1457.1 730L1457.9 730L1458.6 730L1459.4 730L1460.1 730L1460.9 730L1461.6 730L1462.3 730L1463.1 730L1463.8 730L1464.6 730L1465.3 730L1466.1 730L1466.8 730L1467.6 730L1468.3 730L1469.1 730L1469.8 730L1470.6 730L1471.3 730L1472.1 730L1472.8 730L1473.5 730L1474.3 730L1475 730L1475.8 730L1476.5 730L1477.3 730L1478 730L1478.8 730L1479.5 730L1480.3 730L1481 730L1481.8 730L1482.5 730L1483.3 730L1484 730L1484.7 730L1485.5 730L1486.2 730L1487 730L1487.7 730L1488.5 730L1489.2 730L1490 730L1490.7 730L1491.5 730L1492.2 730L1493 730L1493.7 730L1494.5 730L1495.2 730L1495.9 730L1496.7 730L1497.4 730L1498.2 730L1498.9 730L1499.7 730L1500.4 730L1501.2 730L1501.9 730L1502.7 730L1503.4 730L1504.2 730L1504.9 730L1505.7 730L1506.4 730L1507.1 730L1507.9 730L1508.6 730L1509.4 730L1510.1 730L1510.9 730L1511.6 730L1512.4 730L1513.1 730L1513.9 730L1514.6 730L1515.4 730L1516.1 730L1516.9 730L1517.6 730L1518.3 730L1519.1 730L1519.8 730L1520.6 730L1521.3 730L1522.1 730L1522.8 730L1523.6 730L1524.3 730L1525.1 730L1525.8 730L1526.6 730L1527.3 730L1528.1 730L1528.8 730L1529.5 730L1530.3 730L1531 730L1531.8 730L1532.5 730L1533.3 730L1534 730L1534.8 730L1535.5 730L1536.3 730L1537 730L1537.8 730L1538.5 730L1539.3 730L1540 730L1540.7 730L1541.5 730L1542.2 730L1543 730L1543.7 730L1544.5 730L1545.2 730L1546 730L1546.7 730L1547.5 730L1548.2 730L1549 730L1549.7 730L1550.5 730L1551.2 730L1551.9 730L1552.7 730L1553.4 730L1554.2 730L1554.9 730L1555.7 730L1556.4 730L1557.2 730L1557.9 730L1558.7 730L1559.4 730L1560.2 730L1560.9 730L1561.7 730L1562.4 730L1563.1 730L1563.9 730L1564.6 730L1565.4 730L1566.1 730L1566.9 730L1567.6 730L1568.4 730L1569.1 730L1569.9 730L1570.6 730L1571.4 730L1572.1 730L1572.9 730L1573.6 730L1574.3 730L1575.1 730L1575.8 730L1576.6 730L1577.3 730L1578.1 730L1578.8 730L1579.6 730L1580.3 730L1581.1 730L1581.8 730L1582.6 730L1583.3 730L1584.1 730L1584.8 730L1585.5 730L1586.3 730L1587 730L1587.8 730L1588.5 730L1589.3 730L1590 730L1590.8 730L1591.5 730L1592.3 730L1593 730L1593.8 730L1594.5 730L1595.3 730L1596 730L1596.7 730L1597.5 730L1598.2 730L1599 730L1599.7 730L1600.5 730L1601.2 730L1602 730L1602.7 730L1603.5 730L1604.2 730L1605 730L1605.7 730L1606.5 730L1607.2 730L1607.9 730L1608.7 730L1609.4 730L1610.2 730L1610.9 730L1611.7 730L1612.4 730L1613.2 730L1613.9 730L1614.7 730L1615.4 730L1616.2 730L1616.9 730L1617.7 730L1618.4 730L1619.1 730L1619.9 730L1620.6 730L1621.4 730L1622.1 730L1622.9 730L1623.6 730L1624.4 730L1625.1 730L1625.9 730L1626.6 730L1627.4 730L1628.1 730L1628.9 730L1629.6 730L1630.3 730L1631.1 730L1631.8 730L1632.6 730L1633.3 730L1634.1 730L1634.8 730L1635.6 730L1636.3 730L1637.1 730L1637.8 730L1638.6 730L1639.3 730L1640.1 730L1640.8 730L1641.5 730L1642.3 730L1643 730L1643.8 730L1644.5 730L1645.3 730L1646 730L1646.8 730L1647.5 730L1648.3 730L1649 730L1649.8 730L1650.5 730L1651.3 730L1652 730L1652.7 730L1653.5 730L1654.2 730L1655 730L1655.7 730L1656.5 730L1657.2 730L1658 730L1658.7 730L1659.5 730L1660.2 730L1661 730L1661.7 730L1662.5 730L1663.2 730L1663.9 730L1664.7 730L1665.4 730L1666.2 730L1666.9 730L1667.7 730L1668.4 730L1669.2 730L1669.9 730L1670.7 730L1671.4 730L1672.2 730L1672.9 730L1673.7 730L1674.4 730L1675.1 730L1675.9 730L1676.6 730L1677.4 730L1678.1 730L1678.9 730L1679.6 730L1680.4 730L1681.1 730L1681.9 730L1682.6 730L1683.4 730L1684.1 730L1684.9 730L1685.6 730L1686.3 730L1687.1 730L1687.8 730L1688.6 730L1689.3 730L1690.1 730L1690.8 730L1691.6 730L1692.3 730L1693.1 730L1693.8 730L1694.6 730L1695.3 730L1696.1 730L1696.8 730L1697.5 730L1698.3 730L1699 730L1699.8 730L1700.5 730L1701.3 730L1702 730L1702.8 730L1703.5 730L1704.3 730L1705 730L1705.8 730L1706.5 730L1707.3 730L1708 730L1708.7 730L1709.5 730L1710.2 730L1711 730L1711.7 730L1712.5 730L1713.2 730L1714 730L1714.7 730L1715.5 730L1716.2 730L1717 730L1717.7 730L1718.5 730L1719.2 730L1719.9 730L1720.7 730L1721.4 730L1722.2 730L1722.9 730L1723.7 730L1724.4 730L1725.2 730L1725.9 730L1726.7 730L1727.4 730L1728.2 730L1728.9 730L1729.7 730L1730.4 730L1731.1 730L1731.9 730L1732.6 730L1733.4 730L1734.1 730L1734.9 730L1735.6 730L1736.4 730L1737.1 730L1737.9 730L1738.6 730L1739.4 730L1740.1 730L1740.9 730L1741.6 730L1742.3 730L1743.1 730L1743.8 730L1744.6 730L1745.3 730L1746.1 730L1746.8 730L1747.6 730L1748.3 730L1749.1 730L1749.8 730L1750.6 730L1751.3 730L1752.1 730L1752.8 730L1753.5 730L1754.3 730L1755 730L1755.8 730L1756.5 730L1757.3 730L1758 730L1758.8 730L1759.5 730L1760.3 730L1761 730L1761.8 730L1762.5 730L1763.3 730L1764 730L1764.7 730L1765.5 730L1766.2 730L1767 730L1767.7 730L1768.5 730L1769.2 730L1770 730L1770.7 730L1771.5 730L1772.2 730L1773 730L1773.7 730L1774.5 730L1775.2 730L1775.9 730L1776.7 730L1777.4 730L1778.2 730L1778.9 730L1779.7 730L1780.4 730L1781.2 730L1781.9 730L1782.7 730L1783.4 730L1784.2 730L1784.9 730L1785.7 730L1786.4 730L1787.1 730L1787.9 730L1788.6 730L1789.4 730L1790.1 730L1790.9 730L1791.6 730L1792.4 730L1793.1 730L1793.9 730L1794.6 730L1795.4 730L1796.1 730L1796.9 730L1797.6 730L1798.3 730L1799.1 730L1799.8 730L1800.6 730L1801.3 730L1802.1 730L1802.8 730L1803.6 730L1804.3 730L1805.1 730L1805.8 730L1806.6 730L1807.3 730L1808.1 730L1808.8 730L1809.5 730L1810.3 730L1811 730L1811.8 730L1812.5 730L1813.3 730L1814 730L1814.8 730L1815.5 730L1816.3 730L1817 730L1817.8 730L1818.5 730L1819.3 730L1820 730L1820.7 730L1821.5 730L1822.2 730L1823 730L1823.7 730L1824.5 730L1825.2 730L1826 730L1826.7 730L1827.5 730L1828.2 730L1829 730L1829.7 730L1830.5 730L1831.2 730L1831.9 730L1832.7 730L1833.4 730L1834.2 730L1834.9 730L1835.7 730L1836.4 730L1837.2 730L1837.9 730L1838.7 730L1839.4 730L1840.2 730L1840.9 730L1841.7 730L1842.4 730L1843.1 730L1843.9 730L1844.6 730L1845.4 730L1846.1 730L1846.9 730L1847.6 730L1848.4 730L1849.1 730L1849.9 730L1850.6 730L1851.4 730L1852.1 730L1852.9 730L1853.6 730L1854.3 730L1855.1 730L1855.8 730L1856.6 730L1857.3 730L1858.1 730L1858.8 730L1859.6 730L1860.3 730L1861.1 730L1861.8 730L1862.6 730L1863.3 730L1864.1 730L1864.8 730L1865.5 730L1866.3 730L1867 730L1867.8 730L1868.5 730L1869.3 730L1870 730L1870.8 730L1871.5 730L1872.3 730L1873 730L1873.8 730L1874.5 730L1875.3 730L1876 730L1876.7 730L1877.5 730L1878.2 730L1879 730L1879.7 730L1880.5 730L1881.2 730L1882 730L1882.7 730L1883.5 730L1884.2 730L1885 730L1885.7 730L1886.5 730L1887.2 730L1887.9 730L1888.7 730L1889.4 730L1890.2 730L1890.9 730L1891.7 730L1892.4 730L1893.2 730L1893.9 730L1894.7 730L1895.4 730L1896.2 730L1896.9 730L1897.7 730L1898.4 730L1899.1 730L1899.9 730L1900.6 730L1901.4 730L1902.1 730L1902.9 730L1903.6 730L1904.4 730L1905.1 730L1905.9 730L1906.6 730L1907.4 730L1908.1 730L1908.9 730L1909.6 730L1910.3 730L1911.1 730L1911.8 730L1912.6 730L1913.3 730L1914.1 730L1914.8 730L1915.6 730L1916.3 730L1917.1 730L1917.8 730L1918.6 730L1919.3 730L1920.1 730L1920.8 730L1921.5 730L1922.3 730L1923 730L1923.8 730L1924.5 730L1925.3 730L1926 730L1926.8 730L1927.5 730L1928.3 730L1929 730L1929.8 730L1930.5 730L1931.3 730L1932 730L1932.7 730L1933.5 730L1934.2 730L1935 730L1935.7 730L1936.5 730L1937.2 730L1938 730L1938.7 730L1939.5 730L1940.2 730L1941 730L1941.7 730L1942.5 730L1943.2 730L1943.9 730L1944.7 730L1945.4 730L1946.2 730L1946.9 730L1947.7 730L1948.4 730L1949.2 730L1949.9 730L1950.7 730L1951.4 730L1952.2 730L1952.9 730L1953.7 730L1954.4 730L1955.1 730L1955.9 730L1956.6 730L1957.4 730L1958.1 730L1958.9 730L1959.6 730L1960.4 730L1961.1 730L1961.9 730L1962.6 730L1963.4 730L1964.1 730L1964.9 730L1965.6 730L1966.3 730L1967.1 730L1967.8 730L1968.6 730L1969.3 730L1970.1 730L1970.8 730L1971.6 730L1972.3 730L1973.1 730L1973.8 730L1974.6 730L1975.3 730L1976.1 730L1976.8 730L1977.5 730L1978.3 730L1979 730L1979.8 730L1980.5 730L1981.3 730L1982 730L1982.8 730L1983.5 730L1984.3 730L1985 730L1985.8 730L1986.5 730L1987.3 730L1988 730L1988.7 730L1989.5 730L1990.2 730L1991 730L1991.7 730L1992.5 730L1993.2 730L1994 730L1994.7 730L1995.5 730L1996.2 730L1997 730L1997.7 730L1998.5 730L1999.2 730L1999.9 730L2000.7 730L2001.4 730L2002.2 730L2002.9 730L2003.7 730L2004.4 730L2005.2 730L2005.9 730L2006.7 730L2007.4 730L2008.2 730L2008.9 730L2009.7 730L2010.4 730L2011.1 730L2011.9 730L2012.6 730L2013.4 730L2014.1 730L2014.9 730L2015.6 730L2016.4 730L2017.1 730L2017.9 730L2018.6 730L2019.4 730L2020.1 730L2020.9 730L2021.6 730L2022.3 730L2023.1 730L2023.8 730L2024.6 730L2025.3 730L2026.1 730L2026.8 730L2027.6 730L2028.3 730L2029.1 730L2029.8 730L2030.6 730L2031.3 730L2032.1 730L2032.8 730L2033.5 730L2034.3 730L2035 730L2035.8 730L2036.5 730L2037.3 730L2038 730L2038.8 730L2039.5 730L2040.3 730L2041 730L2041.8 730L2042.5 730L2043.3 730L2044 730L2044.7 730L2045.5 730L2046.2 730L2047 730L2047.7 730L2048.5 730L2049.2 730L2050 730L2050.7 730L2051.5 730L2052.2 730L2053 730L2053.7 730L2054.5 730L2055.2 730L2055.9 730L2056.7 730L2057.4 730L2058.2 730L2058.9 730L2059.7 730L2060.4 730L2061.2 730L2061.9 730L2062.7 730L2063.4 730L2064.2 730L2064.9 730L2065.7 730L2066.4 730L2067.1 730L2067.9 730L2068.6 730L2069.4 730L2070.1 730L2070.9 730L2071.6 730L2072.4 730L2073.1 730L2073.9 730L2074.6 730L2075.4 730L2076.1 730L2076.9 730L2077.6 730L2078.3 730L2079.1 730L2079.8 730L2080.6 730L2081.3 730L2082.1 730L2082.8 730L2083.6 730L2084.3 730L2085.1 730L2085.8 730L2086.6 730L2087.3 730L2088.1 730L2088.8 730L2089.5 730L2090.3 730L2091 730L2091.8 730L2092.5 730L2093.3 730L2094 730L2094.8 730L2095.5 730L2096.3 730L2097 730L2097.8 730L2098.5 730L2099.3 730L2100 730L2100.7 730L2101.5 730L2102.2 730L2103 730L2103.7 730L2104.5 730L2105.2 730L2106 730L2106.7 730L2107.5 730L2108.2 730L2109 730L2109.7 730L2110.5 730L2111.2 730L2111.9 730L2112.7 730L2113.4 730L2114.2 730L2114.9 730L2115.7 730L2116.4 730L2117.2 730L2117.9 730L2118.7 730L2119.4 730L2120.2 730L2120.9 730L2121.7 730L2122.4 730L2123.1 730L2123.9 730L2124.6 730L2125.4 730L2126.1 730L2126.9 730L2127.6 730L2128.4 730L2129.1 730L2129.9 730L2130.6 730L2131.4 730L2132.1 730L2132.9 730L2133.6 730L2134.3 730L2135.1 730L2135.8 730L2136.6 730L2137.3 730L2138.1 730L2138.8 730L2139.6 730L2140.3 730L2141.1 730L2141.8 730L2142.6 730L2143.3 730L2144.1 730L2144.8 730L2145.5 730L2146.3 730L2147 730L2147.8 730L2148.5 730L2149.3 730L2150 730L2150.8 730L2151.5 730L2152.3 730L2153 730L2153.8 730L2154.5 730L2155.3 730L2156 730L2156.7 730L2157.5 730L2158.2 730L2159 730L2159.7 730L2160.5 730L2161.2 730L2162 730L2162.7 730L2163.5 730L2164.2 730L2165 730L2165.7 730L2166.5 730L2167.2 730L2167.9 730L2168.7 730L2169.4 730L2170.2 730L2170.9 730L2171.7 730L2172.4 730L2173.2 730L2173.9 730L2174.7 730L2175.4 730L2176.2 730L2176.9 730L2177.7 730L2178.4 730L2179.1 730L2179.9 730L2180.6 730L2181.4 730L2182.1 730L2182.9 730L2183.6 730L2184.4 730L2185.1 730L2185.9 730L2186.6 730L2187.4 730L2188.1 730L2188.9 730L2189.6 730L2190.3 730L2191.1 730L2191.8 730L2192.6 730L2193.3 730L2194.1 730L2194.8 730L2195.6 730L2196.3 730L2197.1 730L2197.8 730L2198.6 730L2199.3 730L2200.1 730L2200.8 730L2201.5 730L2202.3 730L2203 730L2203.8 730L2204.5 730L2205.3 730L2206 730L2206.8 730L2207.5 730L2208.3 730L2209 730L2209.8 730L2210.5 730L2211.3 730L2212 730L2212.7 730L2213.5 730L2214.2 730L2215 730L2215.7 730L2216.5 730L2217.2 730L2218 730L2218.7 730L2219.5 730L2220.2 730L2221 730L2221.7 730L2222.5 730L2223.2 730L2223.9 730L2224.7 730L2225.4 730L2226.2 730L2226.9 730L2227.7 730L2228.4 730L2229.2 730L2229.9 730L2230.7 730L2231.4 730L2232.2 730L2232.9 730L2233.7 730L2234.4 730L2235.1 730L2235.9 730L2236.6 730L2237.4 730L2238.1 730L2238.9 730L2239.6 730L2240.4 730L2241.1 730L2241.9 730L2242.6 730L2243.4 730L2244.1 730L2244.9 730L2245.6 730L2246.3 730L2247.1 730L2247.8 730L2248.6 730L2249.3 730L2250.1 730L2250.8 730L2251.6 730L2252.3 730L2253.1 730L2253.8 730L2254.6 730L2255.3 730L2256.1 730L2256.8 730L2257.5 730L2258.3 730L2259 730L2259.8 730L2260.5 730L2261.3 730L2262 730L2262.8 730L2263.5 730L2264.3 730L2265 730L2265.8 730L2266.5 730L2267.3 730L2268 730L2268.7 730L2269.5 730L2270.2 730L2271 730L2271.7 730L2272.5 730L2273.2 730L2274 730L2274.7 730L2275.5 730L2276.2 730L2277 730L2277.7 730L2278.5 730L2279.2 730L2279.9 730L2280.7 730L2281.4 730L2282.2 730L2282.9 730L2283.7 730L2284.4 730L2285.2 730L2285.9 730L2286.7 730L2287.4 730L2288.2 730L2288.9 730L2289.7 730L2290.4 730L2291.1 730L2291.9 730L2292.6 730L2293.4 730L2294.1 730L2294.9 730L2295.6 730L2296.4 730L2297.1 730L2297.9 730L2298.6 730L2299.4 730L2300.1 730L2300.9 730L2301.6 730L2302.3 730L2303.1 730L2303.8 730L2304.6 730L2305.3 730L2306.1 730L2306.8 730L2307.6 730L2308.3 730L2309.1 730L2309.8 730L2310.6 730L2311.3 730L2312.1 730L2312.8 730L2313.5 730L2314.3 730L2315 730L2315.8 730L2316.5 730L2317.3 730L2318 730L2318.8 730L2319.5 730L2320.3 730L2321 730L2321.8 730L2322.5 730L2323.3 730L2324 730L2324.7 730L2325.5 730L2326.2 730L2327 730L2327.7 730L2328.5 730L2329.2 730L2330 730L2330.7 730L2331.5 730L2332.2 730L2333 730L2333.7 730L2334.5 730L2335.2 730L2335.9 730L2336.7 730L2337.4 730L2338.2 730L2338.9 730L2339.7 730L2340.4 730L2341.2 730L2341.9 730L2342.7 730L2343.4 730L2344.2 730L2344.9 730L2345.7 730L2346.4 730L2347.1 730L2347.9 730L2348.6 730L2349.4 730L2350.1 730L2350.9 730L2351.6 730L2352.4 730L2353.1 730L2353.9 730L2354.6 730L2355.4 730L2356.1 730L2356.9 730L2357.6 730L2358.3 730L2359.1 730L2359.8 730L2360.6 730L2361.3 730L2362.1 730L2362.8 730L2363.6 730L2364.3 730L2365.1 730L2365.8 730L2366.6 730L2367.3 730L2368.1 730L2368.8 730L2369.5 730L2370.3 730L2371 730L2371.8 730L2372.5 730L2373.3 730L2374 730L2374.8 730L2375.5 730L2376.3 730L2377 730L2377.8 730L2378.5 730L2379.3 730L2380 730L2380.7 730L2381.5 730L2382.2 730L2383 730L2383.7 730L2384.5 730L2385.2 730L2386 730L2386.7 730L2387.5 730L2388.2 730L2389 730L2389.7 730L2390.5 730L2391.2 730L2391.9 730L2392.7 730L2393.4 730L2394.2 730L2394.9 730L2395.7 730L2396.4 730L2397.2 730L2397.9 730L2398.7 730L2399.4 730L2400.2 730L2400.9 730L2401.7 730L2402.4 730L2403.1 730L2403.9 730L2404.6 730L2405.4 730L2406.1 730L2406.9 730L2407.6 730L2408.4 730L2409.1 730L2409.9 730L2410.6 730L2411.4 730L2412.1 730L2412.9 730L2413.6 730L2414.3 730L2415.1 730L2415.8 730L2416.6 730L2417.3 730L2418.1 730L2418.8 730L2419.6 730L2420.3 730L2421.1 730L2421.8 730L2422.6 730L2423.3 730L2424.1 730L2424.8 730L2425.5 730L2426.3 730L2427 730L2427.8 730L2428.5 730L2429.3 730L2430 730L2430.8 730L2431.5 730L2432.3 730L2433 730L2433.8 730L2434.5 730L2435.3 730L2436 730L2436.7 730L2437.5 730L2438.2 730L2439 730L2439.7 730L2440.5 730L2441.2 730L2442 730L2442.7 730L2443.5 730L2444.2 730L2445 730L2445.7 730L2446.5 730L2447.2 730L2447.9 730L2448.7 730L2449.4 730L2450.2 730L2450.9 730L2451.7 730L2452.4 730L2453.2 730L2453.9 730L2454.7 730L2455.4 730L2456.2 730L2456.9 730L2457.7 730L2458.4 730L2459.1 730L2459.9 730L2460.6 730L2461.4 730L2462.1 730L2462.9 730L2463.6 730L2464.4 730L2465.1 730L2465.9 730L2466.6 730L2467.4 730L2468.1 730L2468.9 730L2469.6 730L2470.3 730L2471.1 730L2471.8 730L2472.6 730L2473.3 730L2474.1 730L2474.8 730L2475.6 730L2476.3 730L2477.1 730L2477.8 730L2478.6 730L2479.3 730L2480.1 730L2480.8 730L2481.5 730L2482.3 730L2483 730L2483.8 730L2484.5 730L2485.3 730L2486 730L2486.8 730L2487.5 730L2488.3 730L2489 730L2489.8 730L2490.5 730L2491.3 730L2492 730L2492.7 730L2493.5 730L2494.2 730L2495 730L2495.7 730L2496.5 730L2497.2 730L2498 730L2498.7 730L2499.5 730L2500.2 730L2501 730L2501.7 730L2502.5 730L2503.2 730L2503.9 730L2504.7 730L2505.4 730L2506.2 730L2506.9 730L2507.7 730L2508.4 730L2509.2 730L2509.9 730L2510.7 730L2511.4 730L2512.2 730L2512.9 730L2513.7 730L2514.4 730L2515.1 730L2515.9 730L2516.6 730L2517.4 730L2518.1 730L2518.9 730L2519.6 730" fill="none" stroke="#5470c6" stroke-width="2" stroke-linejoin="bevel"></path>
</g>
<path d="M1 0A1 1 0 1 1 1 -0.1A1 1 0 0 1 1 0" transform="matrix(2,0,0,2,280.0747,730)" fill="#fff" stroke="#5470c6"></path>
<path d="M1 0A1 1 0 1 1 1 -0.1A1 1 0 0 1 1 0" transform="matrix(2,0,0,2,336.9707,730)" fill="#fff" stroke="#5470c6"></path>
<path d="M1 0A1 1 0 1 1 1 -0.1A1 1 0 0 1 1 0" transform="matrix(2,0,0,2,393.8667,730)" fill="#fff" stroke="#5470c6"></path>
<path d="M1 0A1 1 0 1 1 1 -0.1A1 1 0 0 1 1 0" transform="matrix(2,0,0,2,450.7627,730)" fill="#fff" stroke="#5470c6"></path>
<path d="M1 0A1 1 0 1 1 1 -0.1A1 1 0 0 1 1 0" transform="matrix(2,0,0,2,507.6587,730)" fill="#fff" stroke="#5470c6"></path>
<path d="M1 0A1 1 0 1 1 1 -0.1A1 1 0 0 1 1 0" transform="matrix(2,0,0,2,564.5547,730)" fill="#fff" stroke="#5470c6"></path>
<path d="M1 0A1 1 0 1 1 1 -0.1A1 1 0 0 1 1 0" transform="matrix(2,0,0,2,621.4507,730)" fill="#fff" stroke="#5470c6"></path>
<path d="M1 0A1 1 0 1 1 1 -0.1A1 1 0 0 1 1 0" transform="matrix(2,0,0,2,678.3467,730)" fill="#fff" stroke="#5470c6"></path>
<path d="M1 0A1 1 0 1 1 1 -0.1A1 1 0 0 1 1 0" transform="matrix(2,0,0,2,735.2427,730)" fill="#fff" stroke="#5470c6"></path>
<path d="M1 0A1 1 0 1 1 1 -0.1A1 1 0 0 1 1 0" transform="matrix(2,0,0,2,792.1387,730)" fill="#fff" stroke="#5470c6"></path>
<path d="M1 0A1 1 0 1 1 1 -0.1A1 1 0 0 1 1 0" transform="matrix(2,0,0,2,849.0347,730)" fill="#fff" stroke="#5470c6"></path>
<path d="M1 0A1 1 0 1 1 1 -0.1A1 1 0 0 1 1 0" transform="matrix(2,0,0,2,905.9307,730)" fill="#fff" stroke="#5470c6"></path>
<path d="M1 0A1 1 0 1 1 1 -0.1A1 1 0 0 1 1 0" transform="matrix(2,0,0,2,962.8267,730)" fill="#fff" stroke="#5470c6"></path>
<path d="M1 0A1 1 0 1 1 1 -0.1A1 1 0 0 1 1 0" transform="matrix(2,0,0,2,1019.7227,730)" fill="#fff" stroke="#5470c6"></path>
<path d="M1 0A1 1 0 1 1 1 -0.1A1 1 0 0 1 1 0" transform="matrix(2,0,0,2,1076.6187,730)" fill="#fff" stroke="#5470c6"></path>
<path d="M1 0A1 1 0 1 1 1 -0.1A1 1 0 0 1 1 0" transform="matrix(2,0,0,2,1133.5146,730)" fill="#fff" stroke="#5470c6"></path>
<path d="M1 0A1 1 0 1 1 1 -0.1A1 1 0 0 1 1 0" transform="matrix(2,0,0,2,1190.4106,730)" fill="#fff" stroke="#5470c6"></path>
<path d="M1 0A1 1 0 1 1 1 -0.1A1 1 0 0 1 1 0" transform="matrix(2,0,0,2,1247.3066,730)" fill="#fff" stroke="#5470c6"></path>
<path d="M1 0A1 1 0 1 1 1 -0.1A1 1 0 0 1 1 0" transform="matrix(2,0,0,2,1304.2026,730)" fill="#fff" stroke="#5470c6"></path>
<path d="M1 0A1 1 0 1 1 1 -0.1A1 1 0 0 1 1 0" transform="matrix(2,0,0,2,1361.0986,730)" fill="#fff" stroke="#5470c6"></path>
<path d="M1 0A1 1 0 1 1 1 -0.1A1 1 0 0 1 1 0" transform="matrix(2,0,0,2,1417.9946,730)" fill="#fff" stroke="#5470c6"></path>
<path d="M1 0A1 1 0 1 1 1 -0.1A1 1 0 0 1 1 0" transform="matrix(2,0,0,2,1474.8906,730)" fill="#fff" stroke="#5470c6"></path>
<path d="M1 0A1 1 0 1 1 1 -0.1A1 1 0 0 1 1 0" transform="matrix(2,0,0,2,1531.7866,730)" fill="#fff" stroke="#5470c6"></path>
<path d="M1 0A1 1 0 1 1 1 -0.1A1 1 0 0 1 1 0" transform="matrix(2,0,0,2,1588.6826,730)" fill="#fff" stroke="#5470c6"></path>
<path d="M1 0A1 1 0 1 1 1 -0.1A1 1 0 0 1 1 0" transform="matrix(2,0,0,2,1645.5786,730)" fill="#fff" stroke="#5470c6"></path>
<path d="M1 0A1 1 0 1 1 1 -0.1A1 1 0 0 1 1 0" transform="matrix(2,0,0,2,1702.4746,730)" fill="#fff" stroke="#5470c6"></path>
<path d="M1 0A1 1 0 1 1 1 -0.1A1 1 0 0 1 1 0" transform="matrix(2,0,0,2,1759.3707,730)" fill="#fff" stroke="#5470c6"></path>
<path d="M1 0A1 1 0 1 1 1 -0.1A1 1 0 0 1 1 0" transform="matrix(2,0,0,2,1816.2667,730)" fill="#fff" stroke="#5470c6"></path>
<path d="M1 0A1 1 0 1 1 1 -0.1A1 1 0 0 1 1 0" transform="matrix(2,0,0,2,1873.1627,730)" fill="#fff" stroke="#5470c6"></path>
<path d="M1 0A1 1 0 1 1 1 -0.1A1 1 0 0 1 1 0" transform="matrix(2,0,0,2,1930.0587,730)" fill="#fff" stroke="#5470c6"></path>
<path d="M1 0A1 1 0 1 1 1 -0.1A1 1 0 0 1 1 0" transform="matrix(2,0,0,2,1986.9547,730)" fill="#fff" stroke="#5470c6"></path>
<path d="M1 0A1 1 0 1 1 1 -0.1A1 1 0 0 1 1 0" transform="matrix(2,0,0,2,2043.8507,730)" fill="#fff" stroke="#5470c6"></path>
<path d="M1 0A1 1 0 1 1 1 -0.1A1 1 0 0 1 1 0" transform="matrix(2,0,0,2,2100.7466,730)" fill="#fff" stroke="#5470c6"></path>
<path d="M1 0A1 1 0 1 1 1 -0.1A1 1 0 0 1 1 0" transform="matrix(2,0,0,2,2157.6426,730)" fill="#fff" stroke="#5470c6"></path>
<path d="M1 0A1 1 0 1 1 1 -0.1A1 1 0 0 1 1 0" transform="matrix(2,0,0,2,2214.5386,730)" fill="#fff" stroke="#5470c6"></path>
<path d="M1 0A1 1 0 1 1 1 -0.1A1 1 0 0 1 1 0" transform="matrix(2,0,0,2,2271.4346,730)" fill="#fff" stroke="#5470c6"></path>
<path d="M1 0A1 1 0 1 1 1 -0.1A1 1 0 0 1 1 0" transform="matrix(2,0,0,2,2328.3306,730)" fill="#fff" stroke="#5470c6"></path>
<path d="M1 0A1 1 0 1 1 1 -0.1A1 1 0 0 1 1 0" transform="matrix(2,0,0,2,2385.2266,730)" fill="#fff" stroke="#5470c6"></path>
<path d="M1 0A1 1 0 1 1 1 -0.1A1 1 0 0 1 1 0" transform="matrix(2,0,0,2,2442.1226,730)" fill="#fff" stroke="#5470c6"></path>
<path d="M1 0A1 1 0 1 1 1 -0.1A1 1 0 0 1 1 0" transform="matrix(2,0,0,2,2499.0186,730)" fill="#fff" stroke="#5470c6"></path>
<path d="M-5 -5l61.8 0l0 23.2l-61.8 0Z" transform="translate(1374.12 5)" fill="rgb(0,0,0)" fill-opacity="0" stroke="#ccc" stroke-width="0"></path>
<path d="M0 7L25 7" transform="translate(1375.12 4.6)" fill="#000" stroke="#5470c6" stroke-width="2" stroke-linecap="butt" stroke-miterlimit="10"></path>
<path d="M18.1 7A5.6 5.6 0 1 1 18.1 6.4A5.6 5.6 0 0 1 18.1 7" transform="translate(1375.12 4.6)" fill="#fff" stroke="#5470c6" stroke-width="2" stroke-linecap="butt" stroke-miterlimit="10"></path>
<text dominant-baseline="central" text-anchor="start" style="font-size:12px;font-family:sans-serif;" x="30" y="7" transform="translate(1375.12 4.6)" fill="#333">fft-0</text>
<defs >
<clipPath id="zr0-c0">
<path d="M279 59l2242 0l0 672l-2242 0Z" fill="#000"></path>
</clipPath>
</defs>
</svg>